<?xml version="1.0" standalone="no"?><!DOCTYPE svg PUBLIC "-//W3C//DTD SVG 1.1//EN" "http://www.w3.org/Graphics/SVG/1.1/DTD/svg11.dtd"><svg t="1773542900343" class="icon" viewBox="0 0 1024 1024" version="1.1" xmlns="http://www.w3.org/2000/svg" p-id="5884" xmlns:xlink="http://www.w3.org/1999/xlink" width="200" height="200"><path d="M464.67134 284.616228a66.9 66.9 0 1 0 94.609236-94.612539 66.9 66.9 0 1 0-94.609236 94.612539Z" fill="#231815" p-id="5885"></path><path d="M983.8 312.7C958 251.7 921.1 197 874 150c-47-47-101.8-83.9-162.7-109.7C648.2 13.5 581.1 0 512 0c-69.1 0-136.2 13.5-199.3 40.2C251.7 66 197 102.9 150 150c-47 47-83.9 101.8-109.7 162.7C13.5 375.8 0 442.9 0 512s13.5 136.2 40.2 199.3C66 772.3 102.9 827 150 874c47 47 101.8 83.9 162.7 109.7 63.1 26.7 130.2 40.2 199.3 40.2 69.1 0 136.2-13.5 199.3-40.2C772.3 958 827 921.1 874 874c47-47 83.9-101.8 109.7-162.7 26.7-63.1 40.2-130.2 40.2-199.3s-13.4-136.2-40.1-199.3zM512 853.5c-36.9 0-66.9-29.9-66.9-66.9s29.9-66.9 66.9-66.9c36.9 0 66.9 29.9 66.9 66.9s-30 66.9-66.9 66.9zM8.4 512C8.4 234.3 234.3 8.4 512 8.4c17.9 0 35.6 0.9 53 2.8C680.2 34.9 766.8 136.8 766.8 259c0 139.7-113.3 253-253 253s-253 113.3-253 253c0 123.5 88.5 226.3 205.5 248.5C210 990.4 8.4 774.3 8.4 512z" fill="#231815" p-id="5886"></path></svg>